<?xml version="1.0" encoding="UTF-8" standalone="no"?>
<!DOCTYPE svg PUBLIC "-//W3C//DTD SVG 1.1//EN"
 "http://www.w3.org/Graphics/SVG/1.1/DTD/svg11.dtd">
<!-- Generated by graphviz version 2.47.0 (20210316.0004)
 -->
<!-- Title: dependencies Pages: 1 -->
<svg width="1577pt" height="287pt"
 viewBox="0.00 0.00 1577.00 287.00" xmlns="http://www.w3.org/2000/svg" xmlns:xlink="http://www.w3.org/1999/xlink">
<g id="graph0" class="graph" transform="scale(1 1) rotate(0) translate(4 283)">
<title>dependencies</title>
<polygon fill="white" stroke="transparent" points="-4,4 -4,-283 1573,-283 1573,4 -4,4"/>
<text text-anchor="start" x="763.51" y="-42.4" font-family="sans-serif" font-weight="bold" font-size="14.00">Legend</text>
<polygon fill="#ffffb3" stroke="transparent" points="550.5,-10 550.5,-30 570.5,-30 570.5,-10 550.5,-10"/>
<text text-anchor="start" x="574.13" y="-15.4" font-family="sans-serif" font-size="14.00"> &#160;Declarations</text>
<polygon fill="#8dd3c7" stroke="transparent" points="663.5,-10 663.5,-30 683.5,-30 683.5,-10 663.5,-10"/>
<text text-anchor="start" x="687.23" y="-15.4" font-family="sans-serif" font-size="14.00"> &#160;Module</text>
<polygon fill="#80b1d3" stroke="transparent" points="749.5,-10 749.5,-30 769.5,-30 769.5,-10 749.5,-10"/>
<text text-anchor="start" x="773.28" y="-15.4" font-family="sans-serif" font-size="14.00"> &#160;Bootstrap</text>
<polygon fill="#fdb462" stroke="transparent" points="846.5,-10 846.5,-30 866.5,-30 866.5,-10 846.5,-10"/>
<text text-anchor="start" x="870.17" y="-15.4" font-family="sans-serif" font-size="14.00"> &#160;Providers</text>
<polygon fill="#fb8072" stroke="transparent" points="942.5,-10 942.5,-30 962.5,-30 962.5,-10 942.5,-10"/>
<text text-anchor="start" x="966.23" y="-15.4" font-family="sans-serif" font-size="14.00"> &#160;Exports</text>
<g id="clust1" class="cluster">
<title>cluster_AppModule</title>
<polygon fill="none" stroke="black" stroke-dasharray="1,5" points="561,-70 561,-271 945,-271 945,-70 561,-70"/>
</g>
<g id="clust3" class="cluster">
<title>cluster_AppModule_imports</title>
<polygon fill="none" stroke="black" points="569,-78 569,-206 937,-206 937,-78 569,-78"/>
</g>
<g id="clust7" class="cluster">
<title>cluster_AuthModule</title>
<polygon fill="none" stroke="black" stroke-dasharray="1,5" points="8,-70 8,-138 553,-138 553,-70 8,-70"/>
</g>
<g id="clust10" class="cluster">
<title>cluster_AuthModule_exports</title>
<polygon fill="none" stroke="black" points="439,-78 439,-130 545,-130 545,-78 439,-78"/>
</g>
<g id="clust12" class="cluster">
<title>cluster_AuthModule_providers</title>
<polygon fill="none" stroke="black" points="16,-78 16,-130 431,-130 431,-78 16,-78"/>
</g>
<g id="clust19" class="cluster">
<title>cluster_UserLoginModule</title>
<polygon fill="none" stroke="black" stroke-dasharray="1,5" points="953,-146 953,-214 1293,-214 1293,-146 953,-146"/>
</g>
<g id="clust22" class="cluster">
<title>cluster_UserLoginModule_exports</title>
<polygon fill="none" stroke="black" points="1147,-154 1147,-206 1285,-206 1285,-154 1147,-154"/>
</g>
<g id="clust24" class="cluster">
<title>cluster_UserLoginModule_providers</title>
<polygon fill="none" stroke="black" points="961,-154 961,-206 1139,-206 1139,-154 961,-154"/>
</g>
<g id="clust25" class="cluster">
<title>cluster_UserModule</title>
<polygon fill="none" stroke="black" stroke-dasharray="1,5" points="1301,-146 1301,-214 1561,-214 1561,-146 1301,-146"/>
</g>
<g id="clust28" class="cluster">
<title>cluster_UserModule_exports</title>
<polygon fill="none" stroke="black" points="1449,-154 1449,-206 1553,-206 1553,-154 1449,-154"/>
</g>
<g id="clust30" class="cluster">
<title>cluster_UserModule_providers</title>
<polygon fill="none" stroke="black" points="1309,-154 1309,-206 1441,-206 1441,-154 1309,-154"/>
</g>
<!-- AuthModule -->
<g id="node1" class="node">
<title>AuthModule</title>
<polygon fill="#8dd3c7" stroke="black" points="664.55,-198 661.55,-202 640.55,-202 637.55,-198 577.45,-198 577.45,-162 664.55,-162 664.55,-198"/>
<text text-anchor="middle" x="621" y="-175.8" font-family="Times,serif" font-size="14.00">AuthModule</text>
</g>
<!-- AppModule -->
<g id="node5" class="node">
<title>AppModule</title>
<polygon fill="#8dd3c7" stroke="black" points="772.66,-263 769.66,-267 748.66,-267 745.66,-263 689.34,-263 689.34,-227 772.66,-227 772.66,-263"/>
<text text-anchor="middle" x="731" y="-240.8" font-family="Times,serif" font-size="14.00">AppModule</text>
</g>
<!-- AuthModule&#45;&gt;AppModule -->
<g id="edge1" class="edge">
<title>AuthModule&#45;&gt;AppModule</title>
<path fill="none" stroke="black" d="M664.63,-189C680.47,-189 694.54,-189 694.54,-189 694.54,-189 694.54,-216.97 694.54,-216.97"/>
<polygon fill="black" stroke="black" points="691.04,-216.97 694.54,-226.97 698.04,-216.97 691.04,-216.97"/>
</g>
<!-- AuthService  -->
<g id="node6" class="node">
<title>AuthService </title>
<polygon fill="#fb8072" stroke="black" points="536.98,-122 447.02,-122 447.02,-86 536.98,-86 536.98,-122"/>
<text text-anchor="middle" x="492" y="-99.8" font-family="Times,serif" font-size="14.00">AuthService </text>
</g>
<!-- AuthModule&#45;&gt;AuthService  -->
<g id="edge6" class="edge">
<title>AuthModule&#45;&gt;AuthService </title>
<path fill="none" stroke="black" stroke-dasharray="5,2" d="M577.33,-170C539.9,-170 492,-170 492,-170 492,-170 492,-132.03 492,-132.03"/>
<polygon fill="black" stroke="black" points="495.5,-132.03 492,-122.03 488.5,-132.03 495.5,-132.03"/>
</g>
<!-- DatabaseModule -->
<g id="node2" class="node">
<title>DatabaseModule</title>
<polygon fill="#8dd3c7" stroke="black" points="687.35,-122 684.35,-126 663.35,-126 660.35,-122 576.65,-122 576.65,-86 687.35,-86 687.35,-122"/>
<text text-anchor="middle" x="632" y="-99.8" font-family="Times,serif" font-size="14.00">DatabaseModule</text>
</g>
<!-- DatabaseModule&#45;&gt;AppModule -->
<g id="edge2" class="edge">
<title>DatabaseModule&#45;&gt;AppModule</title>
<path fill="none" stroke="black" d="M687.46,-104C694.84,-104 699.92,-104 699.92,-104 699.92,-104 699.92,-216.86 699.92,-216.86"/>
<polygon fill="black" stroke="black" points="696.42,-216.86 699.92,-226.86 703.42,-216.86 696.42,-216.86"/>
</g>
<!-- UserLoginModule -->
<g id="node3" class="node">
<title>UserLoginModule</title>
<polygon fill="#8dd3c7" stroke="black" points="824.92,-122 821.92,-126 800.92,-126 797.92,-122 705.08,-122 705.08,-86 824.92,-86 824.92,-122"/>
<text text-anchor="middle" x="765" y="-99.8" font-family="Times,serif" font-size="14.00">UserLoginModule</text>
</g>
<!-- UserLoginModule&#45;&gt;AuthModule -->
<g id="edge5" class="edge">
<title>UserLoginModule&#45;&gt;AuthModule</title>
<path fill="none" stroke="black" d="M727.8,-122.01C727.8,-144.49 727.8,-180 727.8,-180 727.8,-180 674.75,-180 674.75,-180"/>
<polygon fill="black" stroke="black" points="674.75,-176.5 664.75,-180 674.75,-183.5 674.75,-176.5"/>
</g>
<!-- UserLoginModule&#45;&gt;AppModule -->
<g id="edge3" class="edge">
<title>UserLoginModule&#45;&gt;AppModule</title>
<path fill="none" stroke="black" d="M750.32,-122.14C750.32,-122.14 750.32,-216.93 750.32,-216.93"/>
<polygon fill="black" stroke="black" points="746.82,-216.92 750.32,-226.93 753.82,-216.93 746.82,-216.92"/>
</g>
<!-- UserLoginService  -->
<g id="node10" class="node">
<title>UserLoginService </title>
<polygon fill="#fb8072" stroke="black" points="1276.85,-198 1155.15,-198 1155.15,-162 1276.85,-162 1276.85,-198"/>
<text text-anchor="middle" x="1216" y="-175.8" font-family="Times,serif" font-size="14.00">UserLoginService </text>
</g>
<!-- UserLoginModule&#45;&gt;UserLoginService  -->
<g id="edge10" class="edge">
<title>UserLoginModule&#45;&gt;UserLoginService </title>
<path fill="none" stroke="black" stroke-dasharray="5,2" d="M790.12,-122.11C790.12,-131.9 790.12,-142 790.12,-142 790.12,-142 1216,-142 1216,-142 1216,-142 1216,-151.89 1216,-151.89"/>
<polygon fill="black" stroke="black" points="1212.5,-151.89 1216,-161.89 1219.5,-151.89 1212.5,-151.89"/>
</g>
<!-- UserModule -->
<g id="node4" class="node">
<title>UserModule</title>
<polygon fill="#8dd3c7" stroke="black" points="928.98,-122 925.98,-126 904.98,-126 901.98,-122 843.02,-122 843.02,-86 928.98,-86 928.98,-122"/>
<text text-anchor="middle" x="886" y="-99.8" font-family="Times,serif" font-size="14.00">UserModule</text>
</g>
<!-- UserModule&#45;&gt;AppModule -->
<g id="edge4" class="edge">
<title>UserModule&#45;&gt;AppModule</title>
<path fill="none" stroke="black" d="M886,-122.14C886,-160.23 886,-245 886,-245 886,-245 782.95,-245 782.95,-245"/>
<polygon fill="black" stroke="black" points="782.95,-241.5 772.95,-245 782.95,-248.5 782.95,-241.5"/>
</g>
<!-- UserService  -->
<g id="node12" class="node">
<title>UserService </title>
<polygon fill="#fb8072" stroke="black" points="1544.9,-198 1457.1,-198 1457.1,-162 1544.9,-162 1544.9,-198"/>
<text text-anchor="middle" x="1501" y="-175.8" font-family="Times,serif" font-size="14.00">UserService </text>
</g>
<!-- UserModule&#45;&gt;UserService  -->
<g id="edge12" class="edge">
<title>UserModule&#45;&gt;UserService </title>
<path fill="none" stroke="black" stroke-dasharray="5,2" d="M929.25,-98C1069.23,-98 1501,-98 1501,-98 1501,-98 1501,-151.8 1501,-151.8"/>
<polygon fill="black" stroke="black" points="1497.5,-151.8 1501,-161.8 1504.5,-151.8 1497.5,-151.8"/>
</g>
<!-- AuthService -->
<g id="node7" class="node">
<title>AuthService</title>
<ellipse fill="#fdb462" stroke="black" cx="83" cy="-104" rx="59.11" ry="18"/>
<text text-anchor="middle" x="83" y="-99.8" font-family="Times,serif" font-size="14.00">AuthService</text>
</g>
<!-- AuthService&#45;&gt;AuthModule -->
<g id="edge7" class="edge">
<title>AuthService&#45;&gt;AuthModule</title>
<path fill="none" stroke="black" d="M83,-122.03C83,-147.51 83,-191 83,-191 83,-191 567.43,-191 567.43,-191"/>
<polygon fill="black" stroke="black" points="567.43,-194.5 577.43,-191 567.43,-187.5 567.43,-194.5"/>
</g>
<!-- JwtStrategy -->
<g id="node8" class="node">
<title>JwtStrategy</title>
<ellipse fill="#fdb462" stroke="black" cx="366" cy="-104" rx="56.76" ry="18"/>
<text text-anchor="middle" x="366" y="-99.8" font-family="Times,serif" font-size="14.00">JwtStrategy</text>
</g>
<!-- JwtStrategy&#45;&gt;AuthModule -->
<g id="edge8" class="edge">
<title>JwtStrategy&#45;&gt;AuthModule</title>
<path fill="none" stroke="black" d="M366,-122.04C366,-143.66 366,-177 366,-177 366,-177 567.16,-177 567.16,-177"/>
<polygon fill="black" stroke="black" points="567.16,-180.5 577.16,-177 567.16,-173.5 567.16,-180.5"/>
</g>
<!-- LocalStrategy -->
<g id="node9" class="node">
<title>LocalStrategy</title>
<ellipse fill="#fdb462" stroke="black" cx="226" cy="-104" rx="65.41" ry="18"/>
<text text-anchor="middle" x="226" y="-99.8" font-family="Times,serif" font-size="14.00">LocalStrategy</text>
</g>
<!-- LocalStrategy&#45;&gt;AuthModule -->
<g id="edge9" class="edge">
<title>LocalStrategy&#45;&gt;AuthModule</title>
<path fill="none" stroke="black" d="M226,-122.15C226,-145.76 226,-184 226,-184 226,-184 567.22,-184 567.22,-184"/>
<polygon fill="black" stroke="black" points="567.22,-187.5 577.22,-184 567.22,-180.5 567.22,-187.5"/>
</g>
<!-- UserLoginService -->
<g id="node11" class="node">
<title>UserLoginService</title>
<ellipse fill="#fdb462" stroke="black" cx="1050" cy="-180" rx="81.08" ry="18"/>
<text text-anchor="middle" x="1050" y="-175.8" font-family="Times,serif" font-size="14.00">UserLoginService</text>
</g>
<!-- UserLoginService&#45;&gt;UserLoginModule -->
<g id="edge11" class="edge">
<title>UserLoginService&#45;&gt;UserLoginModule</title>
<path fill="none" stroke="black" d="M979.51,-171C907.89,-171 807.42,-171 807.42,-171 807.42,-171 807.42,-132.31 807.42,-132.31"/>
<polygon fill="black" stroke="black" points="810.92,-132.31 807.42,-122.31 803.92,-132.31 810.92,-132.31"/>
</g>
<!-- UserService -->
<g id="node13" class="node">
<title>UserService</title>
<ellipse fill="#fdb462" stroke="black" cx="1375" cy="-180" rx="58.44" ry="18"/>
<text text-anchor="middle" x="1375" y="-175.8" font-family="Times,serif" font-size="14.00">UserService</text>
</g>
<!-- UserService&#45;&gt;UserModule -->
<g id="edge13" class="edge">
<title>UserService&#45;&gt;UserModule</title>
<path fill="none" stroke="black" d="M1375,-161.97C1375,-141.23 1375,-110 1375,-110 1375,-110 939.4,-110 939.4,-110"/>
<polygon fill="black" stroke="black" points="939.4,-106.5 929.4,-110 939.4,-113.5 939.4,-106.5"/>
</g>
</g>
</svg>
